<?xml version="1.0" encoding="utf-8"?>
<!-- Generator: Adobe Illustrator 26.3.1, SVG Export Plug-In . SVG Version: 6.00 Build 0)  -->
<svg version="1.1" id="Layer_1" xmlns="http://www.w3.org/2000/svg" xmlns:xlink="http://www.w3.org/1999/xlink" x="0px" y="0px"
	 viewBox="0 0 65 65" enable-background="new 0 0 65 65" xml:space="preserve">
<g id="_247_CS">
	<path d="M55.893,30.812v-5.031c-0.001-6.308-2.548-12.348-7.064-16.751l0.077-0.077c0.88-0.873,0.885-2.295,0.012-3.175
		c-0.056-0.057-0.115-0.11-0.177-0.161c-9.533-7.489-22.95-7.489-32.483,0c-0.962,0.782-1.108,2.196-0.326,3.159
		c0.05,0.062,0.104,0.121,0.161,0.178l0.077,0.077c-4.516,4.403-7.063,10.443-7.065,16.751v5.033
		c-3.101,1.358-5.153,4.37-5.283,7.753l0.001,6.309c0.083,4.795,4.037,8.615,8.832,8.533c0.06-0.001,0.12-0.003,0.18-0.005
		c0.038,0,0.077,0,0.115-0.001c1.982,0.047,3.66-1.452,3.836-3.427V33.258c-0.018-1.891-1.565-3.409-3.456-3.392
		c-0.036,0-0.072,0.001-0.108,0.003c-0.578,0.008-1.155,0.067-1.723,0.174v-4.262c0.01-5.672,2.315-11.099,6.391-15.043
		c0.826,0.766,2.092,0.802,2.959,0.083c6.751-5.604,16.535-5.608,23.29-0.009c0.87,0.713,2.132,0.677,2.961-0.083
		c4.082,3.945,6.391,9.376,6.4,15.053v4.262c-0.567-0.107-1.143-0.165-1.72-0.174c-1.889-0.078-3.484,1.39-3.562,3.279
		c-0.001,0.031-0.002,0.061-0.003,0.092v16.752c0.184,1.968,1.86,3.458,3.836,3.41c0.039,0.001,0.077,0.001,0.115,0.001
		c0.146,0,0.289-0.014,0.434-0.021c-1.654,3.345-4.736,5.759-8.379,6.567c-0.576-1.293-1.858-2.127-3.273-2.13h-7.181
		c-4.744,0-4.747,7.181,0,7.181h7.181c1.602-0.005,3.006-1.073,3.439-2.616c5.115-1.026,9.318-4.657,11.076-9.569
		c3.414-1.133,5.717-4.326,5.715-7.923l0.001-6.343C61.045,35.171,58.992,32.165,55.893,30.812z M13.249,32.263h0.016
		c0.571-0.05,1.075,0.373,1.124,0.945c0.001,0.011,0.002,0.022,0.002,0.033v16.718c-0.006,0.456-0.7,1.041-1.47,1.05
		c-3.475,0.223-6.472-2.414-6.694-5.888c-0.005-0.076-0.008-0.152-0.01-0.228l-0.001-6.309C6.264,35.143,9.42,32.308,13.249,32.263
		L13.249,32.263z M45.566,8.887c-7.604-6.226-18.545-6.222-26.144,0.009l-1.557-1.499c8.604-6.662,20.622-6.673,29.238-0.026
		C46.398,8.075,46.157,8.322,45.566,8.887z M40.947,62.606h-7.181c-0.661,0-1.197-0.536-1.197-1.197
		c0-0.661,0.536-1.197,1.197-1.197h7.181c0.661,0.004,1.194,0.542,1.19,1.203C42.134,62.072,41.603,62.603,40.947,62.606
		L40.947,62.606z M58.784,44.909c-0.106,3.48-3.013,6.215-6.493,6.109c-0.071-0.002-0.141-0.005-0.212-0.01
		c-0.771-0.009-1.464-0.594-1.47-1.033V33.223c0.044-0.575,0.546-1.005,1.121-0.961c0.002,0,0.004,0,0.006,0h0.016
		c3.83,0.045,6.985,2.881,7.034,6.304L58.784,44.909z"/>
	<path d="M31.119,29.692l-8.077-0.001h-0.001c-0.662-0.003-1.196-0.541-1.193-1.203c0.002-0.45,0.255-0.86,0.656-1.064
		c3.751-1.885,7.393-4.945,6.523-7.211c-0.764-1.989-3.985-1.482-4.994,0.098c-0.361,0.554-1.102,0.711-1.656,0.35
		c-0.547-0.356-0.708-1.086-0.361-1.639c2.024-3.167,7.732-3.611,9.246,0.333c1.219,3.176-1.365,6.015-3.97,7.942h3.826
		c0.661-0.001,1.197,0.535,1.198,1.196C32.315,29.155,31.78,29.691,31.119,29.692z"/>
	<path d="M39.413,28.496v-2.814h-5.161c-0.661-0.001-1.197-0.538-1.196-1.2c0-0.304,0.116-0.596,0.324-0.817l6.358-6.761
		c0.454-0.481,1.212-0.503,1.693-0.049c0.239,0.226,0.375,0.54,0.375,0.869v5.564h0.299c0.661,0,1.197,0.536,1.197,1.197
		s-0.536,1.197-1.197,1.197h-0.299v2.814c0,0.661-0.536,1.197-1.197,1.197S39.413,29.157,39.413,28.496z M37.02,23.288h2.393v-2.545
		L37.02,23.288z"/>
	<path d="M42.78,33.882H22.358c-0.661,0-1.197-0.536-1.197-1.197s0.536-1.197,1.197-1.197H42.78c0.661,0,1.197,0.536,1.197,1.197
		S43.441,33.882,42.78,33.882z"/>
	<path d="M29.412,47.072l4.917-9.001h-5.837c-0.661,0-1.197-0.536-1.197-1.197s0.536-1.197,1.197-1.197h7.854
		c0.662,0.001,1.197,0.538,1.196,1.2c0,0.2-0.05,0.396-0.146,0.571l-5.884,10.772c-0.322,0.577-1.051,0.785-1.628,0.463
		C29.314,48.364,29.104,47.647,29.412,47.072L29.412,47.072z"/>
</g>
</svg>
