<?xml version="1.0" encoding="utf-8"?>
<!-- Generator: Adobe Illustrator 26.3.1, SVG Export Plug-In . SVG Version: 6.00 Build 0)  -->
<svg version="1.1" id="Layer_1" xmlns="http://www.w3.org/2000/svg" xmlns:xlink="http://www.w3.org/1999/xlink" x="0px" y="0px"
	 viewBox="0 0 65 65" enable-background="new 0 0 65 65" xml:space="preserve">
<g>
	<path d="M41.916,57.734c-0.202,0-0.401-0.052-0.577-0.148L19.454,45.569c-0.384-0.211-0.622-0.615-0.622-1.052v-2.674H8.07
		c-0.662,0-1.199-0.538-1.199-1.2c0-0.662,0.538-1.2,1.199-1.2h10.761v-6.761h-7.368c-0.662,0-1.199-0.538-1.199-1.2
		s0.538-1.2,1.199-1.2h7.368v-4.725H4.078c-0.662,0-1.199-0.538-1.199-1.2s0.538-1.2,1.199-1.2h14.753v-2.674
		c0-0.438,0.238-0.841,0.622-1.052l13.149-7.22c0.151-0.132,0.316-0.223,0.491-0.271l8.246-4.526
		c0.176-0.096,0.376-0.147,0.577-0.147s0.401,0.051,0.577,0.147L64.378,19.43C64.762,19.642,65,20.045,65,20.482v8.158
		c0,0.662-0.538,1.2-1.199,1.2s-1.199-0.538-1.199-1.2v-6.131l-6.063,3.33L56.5,32.654c0,0.437-0.238,0.84-0.621,1.051l-4.69,2.581
		c-0.178,0.097-0.377,0.149-0.578,0.149c-0.214,0-0.425-0.058-0.61-0.167c-0.364-0.215-0.589-0.611-0.589-1.033v-5.484l-6.259,3.437
		l-0.038,21.318l19.448-10.679l0.038-5.008c0-0.662,0.538-1.2,1.199-1.2S65,38.158,65,38.819v5.697c0,0.438-0.238,0.841-0.622,1.052
		L42.493,57.586C42.317,57.682,42.117,57.734,41.916,57.734z M21.23,43.764l19.486,10.743V33.252L21.23,22.509V43.764z
		 M51.848,28.414l-0.038,4.791l2.253-1.24l0.038-4.789L51.848,28.414z M22.523,20.482L41.88,31.112l6.234-3.385L28.722,17.078
		L22.523,20.482z M31.214,15.71l19.358,10.629l2.272-1.209L33.451,14.482L31.214,15.71z M35.944,13.112l19.357,10.63l6.007-3.26
		L41.916,9.834L35.944,13.112z"/>
	<path d="M63.801,34.93c-0.316,0-0.625-0.128-0.848-0.352c-0.223-0.223-0.351-0.532-0.351-0.848s0.128-0.624,0.351-0.848
		c0.222-0.224,0.531-0.352,0.848-0.352s0.626,0.128,0.848,0.351C64.872,33.105,65,33.415,65,33.73s-0.128,0.624-0.351,0.848
		C64.425,34.802,64.117,34.93,63.801,34.93z"/>
	<path d="M1.199,41.843c-0.662,0-1.199-0.538-1.199-1.2c0-0.662,0.538-1.2,1.199-1.2h1.823c0.662,0,1.199,0.538,1.199,1.2
		c0,0.662-0.538,1.2-1.199,1.2H1.199z"/>
	<path d="M6.375,32.682c-0.316,0-0.625-0.128-0.849-0.352c-0.223-0.222-0.351-0.53-0.351-0.848s0.128-0.625,0.351-0.848
		c0.224-0.224,0.533-0.352,0.849-0.352c0.316,0,0.624,0.128,0.848,0.352c0.224,0.223,0.352,0.532,0.352,0.848
		s-0.128,0.624-0.352,0.848C6.999,32.553,6.69,32.682,6.375,32.682z"/>
</g>
</svg>
