<?xml version="1.0" encoding="utf-8"?>
<!-- Generator: Adobe Illustrator 26.3.1, SVG Export Plug-In . SVG Version: 6.00 Build 0)  -->
<svg version="1.1" id="Layer_1" xmlns="http://www.w3.org/2000/svg" xmlns:xlink="http://www.w3.org/1999/xlink" x="0px" y="0px"
	 viewBox="0 0 65 65" enable-background="new 0 0 65 65" xml:space="preserve">
<g>
	<path d="M6.289,65c-2.065,0-3.744-1.68-3.744-3.744V25.302H1.199C0.538,25.302,0,24.764,0,24.102V13.923
		c0-2.065,1.68-3.744,3.744-3.744h7.201l0-0.072C10.969,5.076,13.06,0,17.682,0c1.408,0,2.738,0.454,3.846,1.312L28.492,6.7
		c1.433-1.054,3.228-1.611,5.28-1.611c2.181,0,4.052,0.618,5.411,1.786l6.756-5.155C47.068,0.863,48.205,0,50.313,0
		c4.623,0,6.714,5.076,6.736,10.107l0,0.072h4.206c2.065,0,3.744,1.68,3.744,3.744v10.179c0,0.662-0.538,1.199-1.199,1.199h-1.345
		v35.954c0,2.109-2.423,3.744-4.508,3.744H6.289z M38.789,29.475v33.126h19.159c0.978,0,2.109-0.814,2.109-1.345V25.302H49.622
		l4.161,5.722c0.298,0.41,0.305,0.966,0.019,1.384c-0.224,0.326-0.593,0.521-0.989,0.521c-0.105,0-0.209-0.014-0.311-0.041
		l-5.794-1.552l-1.552,5.793c-0.14,0.524-0.617,0.89-1.159,0.89c-0.455,0-0.865-0.253-1.07-0.659l-4-7.917L38.789,29.475z
		 M31.163,24.405l-0.008,38.196h5.235V24.438l-2.618-5.199L31.163,24.405z M4.944,61.256c0,0.742,0.603,1.345,1.345,1.345h22.467
		V29.475l-0.138-0.033l-4,7.917c-0.205,0.406-0.616,0.659-1.072,0.659c-0.041,0-0.082-0.002-0.123-0.006
		c-0.491-0.051-0.907-0.406-1.035-0.883l-1.552-5.793l-5.794,1.552c-0.101,0.027-0.206,0.042-0.311,0.042
		c-0.397,0-0.767-0.196-0.991-0.525c-0.286-0.421-0.275-0.98,0.028-1.389l4.235-5.713H4.944V61.256z M39.495,15.597
		c-0.967,0.952-2.285,1.608-3.813,1.897l-0.095,0.018l8.064,15.962l1.049-3.918c0.082-0.305,0.286-0.571,0.559-0.728
		c0.182-0.105,0.389-0.161,0.599-0.161c0.105,0,0.209,0.014,0.311,0.041l3.679,0.986L39.555,15.538L39.495,15.597z M21.686,28.667
		c0.541,0,1.017,0.366,1.158,0.889l1.05,3.918l8.066-15.965l-0.095-0.018c-1.455-0.277-2.727-0.886-3.677-1.762l-0.06-0.055
		L17.744,29.68l3.631-0.972C21.477,28.68,21.582,28.667,21.686,28.667z M44.125,17.744l3.731,5.129l14.745,0.03v-8.98
		c0-0.742-0.603-1.345-1.345-1.345h-4.307c-0.646,4.1-2.55,6.868-5.163,7.467c-0.513,0.117-1.017,0.177-1.497,0.177
		c-1.265,0-2.453-0.395-3.852-1.283l-2.215-1.301L44.125,17.744z M3.744,12.578c-0.742,0-1.345,0.603-1.345,1.345v8.98h17.347
		l3.657-4.883l-0.093-0.108c-0.438,0.231-0.858,0.487-1.277,0.742c-1.324,0.806-2.575,1.568-4.323,1.568
		c-0.479,0-0.983-0.06-1.498-0.178c-2.612-0.599-4.516-3.367-5.092-7.404L3.744,12.578z M17.682,2.399
		c-0.898,0-1.689,0.361-2.349,1.072c-1.609,1.733-2.138,5.267-1.948,7.815c0.254,3.437,1.606,6.017,3.363,6.42
		c0.344,0.079,0.66,0.117,0.967,0.117c0.959,0,1.666-0.377,2.559-0.91l6.237-3.664c-0.023-0.259-0.071-0.435-0.111-0.613
		l-4.078-0.057c-0.662,0-1.199-0.538-1.199-1.199s0.538-1.199,1.199-1.199h4.008c0.188-0.581,0.375-1.085,0.628-1.557L20.061,3.21
		C19.375,2.679,18.552,2.399,17.682,2.399z M41.067,12.94l6.614,3.948c0.881,0.529,1.634,0.934,2.613,0.934
		c0.304,0,0.617-0.038,0.956-0.115c1.757-0.403,3.108-2.983,3.362-6.42c0.19-2.549-0.339-6.081-1.948-7.816
		c-0.66-0.711-1.451-1.072-2.349-1.072c-1.32,0-2.031,0.547-2.719,1.075l-6.856,5.304c0.17,0.488,0.316,0.91,0.411,1.344
		l4.075,0.057c0.662,0,1.199,0.538,1.199,1.199s-0.538,1.199-1.199,1.199h-4.068C41.156,12.578,41.095,12.838,41.067,12.94z
		 M33.772,7.488c-3.51,0-5.111,2.017-5.113,3.892c-0.003,1.86,1.579,3.87,5.063,3.889c3.578-0.02,5.162-2.03,5.162-3.89
		c0.001-0.922-0.369-1.801-1.042-2.476C37.199,8.257,35.97,7.488,33.772,7.488z M8.834,59.91c-0.662,0-1.199-0.538-1.199-1.199
		v-8.398c0-0.662,0.538-1.199,1.199-1.199s1.199,0.538,1.199,1.199v8.398C10.033,59.373,9.495,59.91,8.834,59.91z M8.834,46.423
		c-0.662,0-1.199-0.538-1.199-1.199c0-0.662,0.538-1.199,1.199-1.199s1.199,0.538,1.199,1.199
		C10.033,45.885,9.495,46.423,8.834,46.423z"/>
</g>
</svg>
