<?xml version="1.0" encoding="utf-8"?>
<!-- Generator: Adobe Illustrator 26.3.1, SVG Export Plug-In . SVG Version: 6.00 Build 0)  -->
<svg version="1.1" id="Layer_1" xmlns="http://www.w3.org/2000/svg" xmlns:xlink="http://www.w3.org/1999/xlink" x="0px" y="0px"
	 viewBox="0 0 65 65" enable-background="new 0 0 65 65" xml:space="preserve">
<g>
	<path d="M3.314,60.83C1.484,60.83,0,59.346,0,57.516V19.991c0-1.83,1.483-3.313,3.313-3.313h22.933
		c0.678,0,1.229,0.551,1.229,1.228c0,0.678-0.551,1.228-1.229,1.228H3.874c-0.782,0-1.416,0.634-1.416,1.416v8.635h23.788
		c0.678,0,1.229,0.551,1.229,1.228c0,0.678-0.551,1.228-1.229,1.228H2.458v25.313c0,0.782,0.634,1.416,1.416,1.416h57.252
		c0.782,0,1.416-0.634,1.416-1.416V42.923c0-0.678,0.551-1.228,1.229-1.228S65,42.246,65,42.923v14.593
		c0,1.83-1.483,3.313-3.313,3.313H3.314z M17.907,44.152c0.678,0,1.229-0.551,1.229-1.228s-0.551-1.228-1.229-1.228H9.568
		c-0.678,0-1.229,0.551-1.229,1.228s0.551,1.228,1.229,1.228H17.907z M49.789,43.99C60.878,37.619,65,31.114,65,19.991v-8.339
		c0-0.493-0.293-0.937-0.745-1.131L49.67,4.27c-0.158-0.066-0.325-0.1-0.494-0.1c-0.169,0-0.336,0.034-0.486,0.097L34.099,10.52
		c-0.451,0.194-0.743,0.638-0.743,1.132v8.339c0,11.107,4.123,17.612,15.209,23.999c0.185,0.106,0.398,0.162,0.613,0.162
		S49.606,44.095,49.789,43.99z M48.62,6.974c0.356-0.153,0.76-0.153,1.116,0l11.948,5.122c0.521,0.223,0.858,0.735,0.858,1.302
		v6.594c0,9.97-3.382,15.53-12.924,21.248l-0.44,0.264l-0.441-0.265c-9.542-5.731-12.923-11.291-12.923-21.248v-6.594
		c0-0.567,0.338-1.079,0.858-1.302L48.62,6.974z M47.093,29.558c0.376,0,0.727-0.169,0.962-0.463l8.337-10.422
		c0.423-0.531,0.338-1.307-0.186-1.726c-0.222-0.175-0.487-0.267-0.769-0.267c-0.377,0-0.729,0.167-0.962,0.456l-7.286,9.111
		l-3.24-4.848c-0.233-0.344-0.618-0.55-1.033-0.55c-0.24,0-0.471,0.07-0.671,0.204c-0.564,0.377-0.719,1.141-0.344,1.702
		l4.168,6.252c0.222,0.33,0.578,0.531,0.936,0.55H47.093z"/>
</g>
</svg>
