<?xml version="1.0" encoding="utf-8"?>
<!-- Generator: Adobe Illustrator 26.3.1, SVG Export Plug-In . SVG Version: 6.00 Build 0)  -->
<svg version="1.1" id="Layer_1" xmlns="http://www.w3.org/2000/svg" xmlns:xlink="http://www.w3.org/1999/xlink" x="0px" y="0px"
	 viewBox="0 0 166.88 60" enable-background="new 0 0 166.88 60" xml:space="preserve">
<g>
	<path opacity="0.5" fill="#0CAACE" d="M75.357,42.24c-2.089,1.046-4.317,1.527-6.631,1.448c-1.698-0.058-2.862,0.631-3.787,2.002
		c-0.409,0.605-0.859,1.195-1.348,1.744c-0.242,0.274-0.497,0.538-0.758,0.792c-2.661,2.565-6.031,2.737-9.011,0.518
		c-2.098-1.563-3.224-3.759-3.919-6.203c-0.197-0.696-0.354-1.392-0.472-2.091c-0.409-2.397-0.375-4.822-0.017-7.262
		c0.638-4.278,2.114-8.225,4.852-11.61c0.863-1.07,1.883-2.055,2.979-2.884c3.28-2.481,6.892-2.724,10.281-0.92
		c0.538,0.285,1.073,0.623,1.598,1.013c0.677,0.5,1.447,0.922,2.246,1.25c0.402,0.165,0.812,0.306,1.22,0.423
		c3.194,0.918,6.031,2.309,7.911,5.175C84.16,31.22,81.721,39.054,75.357,42.24z M59.156,11.189
		c0.228-2.981-2.324-7.333-5.022-8.565c-2.9-1.324-6.216,0.41-6.687,3.962c0.141,3.058,1.243,6.206,4.222,8.318
		C54.427,16.861,58.898,14.559,59.156,11.189z M64.788,13.265c2.637,0.539,4.583-0.386,5.704-2.83
		c0.454-0.99,0.71-2.072,1.096-3.231c-0.069-1.063-0.012-2.221-0.245-3.318c-0.45-2.117-1.807-3.417-3.974-3.801
		c-2.114-0.374-3.656,0.524-4.778,2.236c-1.222,1.864-1.753,3.959-1.704,6.164C60.944,11.095,62.371,12.771,64.788,13.265z
		 M80.48,7.01c-1.521-0.942-3.061-0.796-4.475,0.211c-1.966,1.4-3.279,3.289-3.738,5.68c-0.346,1.803,0.387,3.213,2.03,4.21
		c1.632,0.991,3.237,0.985,4.676-0.142c1.875-1.468,2.93-3.456,3.381-5.514C82.593,9.421,82.032,7.971,80.48,7.01z M50.509,22.503
		c0.983-1.501,1.149-3.053,0.1-4.574c-1.154-1.672-2.78-2.732-4.731-3.252c-1.599-0.426-2.993-0.008-4.074,1.265
		c-1.116,1.315-1.517,2.811-0.776,4.428c1.059,2.312,3.003,3.553,5.062,4.168C48.255,24.83,49.543,23.978,50.509,22.503z"/>
	<g>
		<path fill="#1B1464" d="M21.615,13.011c-2.185-1.043-4.775-1.565-7.77-1.565c-2.112,0-4.308,0.301-6.591,0.902
			c-2.283,0.602-4.272,1.479-5.965,2.633C0.822,15.3,0.491,15.65,0.295,16.03C0.098,16.411,0,16.896,0,17.485
			C0,18,0.123,18.436,0.368,18.792c0.245,0.356,0.577,0.534,0.994,0.534c0.368,0,0.712-0.11,1.031-0.331
			c1.547-1.006,3.283-1.816,5.211-2.43c1.927-0.613,3.872-0.921,5.836-0.921c3.044,0,5.4,0.798,7.07,2.394
			c1.669,1.596,2.504,3.854,2.504,6.775c0,4.345-1.062,7.819-3.185,10.421c-2.124,2.602-5.334,3.903-9.629,3.903
			c-0.933,0-1.768-0.037-2.504-0.11c0.27-2.995,0.724-6.143,1.362-9.445c0.638-3.301,1.276-5.934,1.915-7.899
			c0.147-0.442,0.221-0.834,0.221-1.178c0-0.834-0.749-1.252-2.246-1.252c-0.835,0-1.51,0.123-2.025,0.368
			c-0.516,0.246-0.86,0.675-1.031,1.289c-0.908,3.314-1.682,6.757-2.32,10.329c-0.639,3.572-1.044,6.573-1.215,9.003
			c-0.049,0.884,0.11,1.522,0.479,1.915c0.368,0.393,1.043,0.651,2.025,0.773c1.792,0.245,3.4,0.368,4.824,0.368
			c3.903,0,7.266-0.761,10.09-2.283c2.823-1.522,4.971-3.664,6.444-6.426c1.473-2.762,2.209-5.996,2.209-9.703
			c0-2.847-0.589-5.278-1.767-7.291C25.482,15.583,23.8,14.054,21.615,13.011z"/>
		<path fill="#1B1464" d="M146.517,22.806c0.516,0.479,1.289,0.718,2.32,0.718c1.055,0,1.902-0.288,2.541-0.865
			c0.638-0.577,0.957-1.356,0.957-2.338c0-0.81-0.283-1.436-0.847-1.878c-0.565-0.442-1.301-0.663-2.209-0.663
			c-1.007,0-1.847,0.289-2.522,0.865c-0.676,0.577-1.013,1.295-1.013,2.154C145.744,21.658,146.002,22.327,146.517,22.806z"/>
		<path fill="#1B1464" d="M166.604,36.449c-0.184-0.295-0.436-0.442-0.755-0.442c-0.368,0-0.7,0.184-0.994,0.552
			c-0.688,0.957-1.381,1.682-2.081,2.173c-0.7,0.491-1.467,0.736-2.301,0.736c-1.056,0-1.872-0.362-2.449-1.086
			c-0.577-0.724-0.865-1.786-0.865-3.185c0-1.031,0.147-1.976,0.442-2.835c0.295-0.859,0.687-1.54,1.178-2.044
			c0.491-0.503,1.018-0.755,1.583-0.755c0.295,0,0.521,0.086,0.681,0.258c0.159,0.172,0.239,0.418,0.239,0.736
			c0,0.319-0.062,0.663-0.184,1.031c-0.025,0.098-0.061,0.258-0.11,0.479c-0.049,0.221-0.074,0.418-0.074,0.589
			c0,0.393,0.141,0.7,0.423,0.921c0.282,0.221,0.656,0.331,1.123,0.331c0.736,0,1.331-0.356,1.786-1.068
			c0.454-0.712,0.681-1.583,0.681-2.614c0-1.252-0.375-2.277-1.123-3.075c-0.749-0.797-1.799-1.197-3.148-1.197
			c-1.375,0-2.688,0.405-3.94,1.215c-1.252,0.81-2.271,1.964-3.056,3.461c-0.786,1.498-1.178,3.24-1.178,5.229
			c0,0.436,0.026,0.855,0.076,1.258c-0.45,0.495-0.844,0.898-1.18,1.21c-0.663,0.614-1.215,0.921-1.657,0.921
			c-0.467,0-0.798-0.196-0.994-0.589c-0.197-0.392-0.295-0.957-0.295-1.694c0-0.957,0.295-2.786,0.884-5.487
			c0.466-2.234,0.7-3.658,0.7-4.272c0-0.834-0.626-1.252-1.878-1.252c-0.81,0-1.399,0.147-1.768,0.442
			c-0.368,0.295-0.663,0.835-0.884,1.62c-0.442,1.498-0.804,3.112-1.086,4.842c-0.234,1.431-0.37,2.648-0.41,3.651
			c-0.701,0.746-1.331,1.34-1.891,1.781c-0.81,0.639-1.743,0.957-2.799,0.957c-1.301,0-2.253-0.516-2.854-1.547
			c-0.602-1.031-0.902-2.823-0.902-5.376c0-0.687,0.024-1.644,0.074-2.872h4.492c2.774,0,4.161-0.847,4.161-2.541
			c0-0.466-0.086-0.785-0.258-0.957c-0.172-0.171-0.454-0.258-0.847-0.258h-4.124c3.191-2.823,4.787-6.137,4.787-9.942
			c0-1.375-0.295-2.516-0.884-3.425c-0.589-0.908-1.399-1.362-2.43-1.362c-1.399,0-2.707,0.663-3.922,1.988
			c-1.215,1.326-2.253,3.106-3.112,5.339c-0.86,2.234-1.498,4.701-1.915,7.401h-2.099c-1.105,0-1.657,0.688-1.657,2.062
			c0,0.589,0.129,1.019,0.387,1.289c0.258,0.27,0.755,0.405,1.491,0.405h1.436c-0.074,1.105-0.111,2.197-0.111,3.277
			c0,0.792,0.033,1.537,0.097,2.24c-0.219,0.079-0.423,0.228-0.612,0.448c-1.62,2.013-3.032,3.253-4.235,3.719
			c0.049-0.442,0.074-0.785,0.074-1.031c0-0.859-0.203-1.651-0.608-2.375c-0.405-0.724-1.001-1.602-1.786-2.633
			c-0.54-0.663-0.939-1.215-1.197-1.657c-0.258-0.442-0.387-0.847-0.387-1.215c0-0.613,0.221-1.362,0.663-2.246
			c0.171-0.319,0.307-0.638,0.405-0.957c0.098-0.319,0.147-0.552,0.147-0.7c0-0.27-0.135-0.466-0.405-0.589
			c-0.27-0.123-0.749-0.184-1.436-0.184c-1.473,0-2.443,0.54-2.909,1.62c-0.54,1.277-1.093,2.51-1.657,3.701
			c-0.565,1.191-1.056,2.142-1.473,2.854c-0.659,1.036-1.625,2.344-2.893,3.921c-0.263,0.272-0.501,0.506-0.715,0.7
			c-0.663,0.602-1.228,0.902-1.694,0.902c-0.295,0-0.534-0.11-0.718-0.331c-0.184-0.221-0.276-0.516-0.276-0.884
			c0-1.105,0.282-3.068,0.847-5.892c0.368-1.939,0.552-3.167,0.552-3.682c0-0.859-0.602-1.289-1.804-1.289
			c-0.565,0-1.105,0.05-1.62,0.147c-0.123-0.54-0.276-0.914-0.46-1.123c-0.184-0.208-0.547-0.313-1.086-0.313
			c-1.694,0-3.296,0.534-4.805,1.602c-1.51,1.068-2.719,2.48-3.627,4.235c-0.859,1.66-1.311,3.414-1.358,5.26
			c-0.523,0.53-1.003,0.968-1.44,1.313c-0.81,0.639-1.743,0.957-2.799,0.957c-1.301,0-2.253-0.516-2.854-1.547
			c-0.602-1.031-0.902-2.823-0.902-5.376c0-0.687,0.024-1.644,0.074-2.872h4.492c2.774,0,4.161-0.847,4.161-2.541
			c0-0.466-0.086-0.785-0.258-0.957c-0.172-0.171-0.454-0.258-0.847-0.258h-4.124c3.191-2.823,4.787-6.137,4.787-9.942
			c0-1.375-0.295-2.516-0.884-3.425c-0.589-0.908-1.399-1.362-2.43-1.362c-1.399,0-2.707,0.663-3.922,1.988
			c-1.215,1.326-2.253,3.106-3.112,5.339c-0.86,2.234-1.498,4.701-1.915,7.401h-2.099c-1.105,0-1.657,0.688-1.657,2.062
			c0,0.589,0.129,1.019,0.387,1.289c0.258,0.27,0.755,0.405,1.491,0.405h1.436c-0.074,1.105-0.111,2.197-0.111,3.277
			c0,0.795,0.034,1.542,0.097,2.247c-0.243,0.003-0.52,0.101-0.833,0.294c-1.743,1.129-3.56,2.43-5.45,3.903
			c0.123-0.785,0.239-1.528,0.35-2.228c0.11-0.7,0.215-1.344,0.313-1.933c0.516-3.093,0.822-5.02,0.921-5.781
			c0.024-0.171,0.037-0.405,0.037-0.7c0-0.54-0.129-0.902-0.387-1.086c-0.258-0.184-0.694-0.276-1.307-0.276
			c-0.614,0-1.154,0.05-1.62,0.147c-0.123-0.54-0.276-0.914-0.46-1.123c-0.184-0.208-0.547-0.313-1.086-0.313
			c-1.694,0-3.296,0.534-4.805,1.602c-1.51,1.068-2.719,2.48-3.627,4.235c-0.712,1.375-1.143,2.814-1.297,4.317
			c-1.389,0.942-2.821,1.987-4.3,3.139c0.123-0.785,0.239-1.528,0.35-2.228c0.11-0.7,0.215-1.344,0.313-1.933
			c0.516-3.093,0.822-5.02,0.921-5.781c0.024-0.171,0.037-0.405,0.037-0.7c0-0.54-0.129-0.902-0.387-1.086
			c-0.258-0.184-0.694-0.276-1.307-0.276c-0.614,0-1.154,0.05-1.62,0.147c-0.123-0.54-0.276-0.914-0.46-1.123
			c-0.184-0.208-0.547-0.313-1.086-0.313c-1.694,0-3.296,0.534-4.805,1.602c-1.51,1.068-2.719,2.48-3.627,4.235
			c-0.07,0.134-0.135,0.269-0.2,0.405c-1.188,0.273-2.239,0.439-3.151,0.497c-0.197-1.89-0.865-3.48-2.007-4.769
			c-1.142-1.289-2.646-1.933-4.511-1.933c-1.522,0-2.909,0.411-4.161,1.234c-1.252,0.823-2.234,1.964-2.946,3.425
			c-0.712,1.461-1.068,3.124-1.068,4.99c0,1.375,0.27,2.651,0.81,3.83c0.54,1.178,1.331,2.124,2.375,2.835
			c1.043,0.712,2.302,1.068,3.774,1.068c1.743,0,3.301-0.62,4.677-1.86c1.375-1.239,2.295-2.891,2.762-4.953
			c0.807-0.034,1.582-0.114,2.327-0.239c-0.029,0.347-0.045,0.696-0.045,1.049c0,1.792,0.454,3.24,1.362,4.345
			c0.908,1.105,2.123,1.657,3.645,1.657c0.663,0,1.331-0.178,2.007-0.534c0.675-0.356,1.221-0.865,1.639-1.528l-0.221,1.436
			c-3.781,2.921-6.358,5.382-7.733,7.383c-1.375,2.001-2.062,3.872-2.062,5.616c0,1.252,0.392,2.265,1.178,3.038
			c0.785,0.773,1.804,1.16,3.056,1.16c2.332,0,4.253-1.455,5.763-4.364c1.51-2.909,2.731-6.904,3.664-11.986l2.357-1.583
			c0.708-0.495,1.71-1.183,3.005-2.061c0.226,0.663,0.549,1.253,0.972,1.767c0.908,1.105,2.123,1.657,3.645,1.657
			c0.663,0,1.331-0.178,2.007-0.534c0.675-0.356,1.221-0.865,1.639-1.528l-0.221,1.436c-3.781,2.921-6.358,5.382-7.733,7.383
			c-1.375,2.001-2.062,3.872-2.062,5.616c0,1.252,0.392,2.265,1.178,3.038c0.785,0.773,1.804,1.16,3.056,1.16
			c2.332,0,4.253-1.455,5.763-4.364c1.51-2.909,2.731-6.904,3.664-11.986l2.357-1.583c0.982-0.687,2.528-1.743,4.64-3.167
			c0.258-0.172,0.467-0.362,0.628-0.571c1.062,3.399,3.332,5.1,6.81,5.1c1.62,0,3.056-0.417,4.308-1.252
			c0.528-0.352,1.039-0.746,1.532-1.181c0.155,0.275,0.331,0.534,0.53,0.776c0.908,1.105,2.123,1.657,3.645,1.657
			c1.939,0,3.547-1.031,4.824-3.093c0.343,0.957,0.853,1.712,1.528,2.265c0.675,0.552,1.418,0.829,2.228,0.829
			c1.055,0,2.148-0.429,3.277-1.289c1.129-0.859,2.197-1.915,3.204-3.167c0.116-0.135,0.218-0.283,0.305-0.445
			c0.139-0.169,0.277-0.34,0.412-0.512c0.748-0.957,1.503-2.16,2.265-3.609c0.344,0.393,0.712,0.853,1.105,1.381
			c0.392,0.528,0.718,1.074,0.976,1.639c0.258,0.565,0.399,1.166,0.424,1.804c-0.221-0.024-0.547-0.067-0.976-0.129
			c-0.43-0.061-0.804-0.092-1.123-0.092c-0.908,0-1.596,0.234-2.062,0.7c-0.467,0.467-0.7,1.019-0.7,1.657
			c0,0.736,0.337,1.399,1.013,1.988c0.675,0.589,1.651,0.884,2.927,0.884c1.35,0,2.516-0.418,3.498-1.252
			c1.644-0.049,3.025-0.35,4.143-0.902c1.117-0.552,2.289-1.589,3.517-3.112c0.026-0.033,0.051-0.066,0.075-0.1
			c1.129,3.037,3.338,4.556,6.626,4.556c1.62,0,3.056-0.417,4.308-1.252c0.605-0.403,1.187-0.861,1.746-1.374
			c0.137,0.334,0.298,0.645,0.482,0.932c0.724,1.129,1.884,1.694,3.48,1.694c1.666,0,3.433-0.926,5.298-2.777
			c0.185,0.257,0.388,0.502,0.611,0.734c1.313,1.362,3.136,2.044,5.468,2.044c1.399,0,2.639-0.3,3.719-0.902
			c1.08-0.601,1.952-1.418,2.614-2.449c0.417-0.638,0.626-1.399,0.626-2.283C166.88,37.148,166.788,36.743,166.604,36.449z
			 M136.999,19.713c0.405-1.632,0.834-2.909,1.289-3.83c0.454-0.921,0.865-1.381,1.234-1.381c0.54,0,0.81,0.724,0.81,2.173
			c0,1.277-0.363,2.694-1.086,4.253c-0.724,1.559-1.811,2.964-3.259,4.216C136.256,23.156,136.594,21.345,136.999,19.713z
			 M89.498,19.713c0.405-1.632,0.834-2.909,1.289-3.83c0.454-0.921,0.865-1.381,1.234-1.381c0.54,0,0.81,0.724,0.81,2.173
			c0,1.277-0.363,2.694-1.086,4.253c-0.724,1.559-1.811,2.964-3.259,4.216C88.755,23.156,89.093,21.345,89.498,19.713z
			 M39.64,38.437c-0.577,0.639-1.258,0.957-2.044,0.957c-0.712,0-1.332-0.356-1.86-1.068c-0.528-0.712-0.792-1.743-0.792-3.093
			c0-1.718,0.325-3.05,0.976-3.995c0.65-0.945,1.467-1.418,2.449-1.418h0.184c-0.074,0.393-0.111,0.786-0.111,1.178
			c0,0.933,0.203,1.817,0.608,2.651c0.405,0.835,0.988,1.51,1.749,2.025C40.603,36.878,40.217,37.799,39.64,38.437z M52.381,54.087
			c-0.773,1.473-1.467,2.209-2.08,2.209c-0.368,0-0.632-0.135-0.792-0.405c-0.16-0.27-0.239-0.614-0.239-1.031
			c0-0.982,0.417-2.124,1.252-3.425c0.834-1.301,2.197-2.762,4.087-4.382C53.896,50.269,53.154,52.614,52.381,54.087z
			 M56.081,35.602c-0.221,1.277-0.589,2.259-1.105,2.946c-0.516,0.688-1.056,1.031-1.62,1.031c-0.54,0-0.964-0.184-1.27-0.552
			c-0.307-0.368-0.46-0.933-0.46-1.694c0-1.375,0.258-2.675,0.773-3.903c0.516-1.227,1.202-2.215,2.062-2.964
			c0.859-0.749,1.792-1.135,2.799-1.16L56.081,35.602z M69.651,54.087c-0.773,1.473-1.467,2.209-2.08,2.209
			c-0.368,0-0.632-0.135-0.792-0.405c-0.16-0.27-0.239-0.614-0.239-1.031c0-0.982,0.417-2.124,1.252-3.425
			c0.834-1.301,2.197-2.762,4.087-4.382C71.166,50.269,70.424,52.614,69.651,54.087z M73.351,35.602
			c-0.221,1.277-0.589,2.259-1.105,2.946c-0.516,0.688-1.056,1.031-1.62,1.031c-0.54,0-0.964-0.184-1.27-0.552
			c-0.307-0.368-0.46-0.933-0.46-1.694c0-1.375,0.258-2.675,0.773-3.903c0.516-1.227,1.202-2.215,2.062-2.964
			c0.859-0.749,1.792-1.135,2.799-1.16L73.351,35.602z M104.982,36.08c-0.221,1.056-0.577,1.903-1.068,2.541
			c-0.491,0.639-1.007,0.957-1.547,0.957c-0.54,0-0.964-0.184-1.27-0.552c-0.307-0.368-0.46-0.933-0.46-1.694
			c0-1.375,0.258-2.675,0.773-3.903c0.516-1.227,1.209-2.215,2.081-2.964c0.871-0.749,1.823-1.135,2.854-1.16L104.982,36.08z"/>
	</g>
	<path fill="#0CAACE" d="M76.959,59.752l3.548-9.327h2.283l3.601,9.327h-2.27l-0.757-1.983h-3.614l-0.652,1.983H76.959z
		 M80.312,56.204h2.583l-1.044-3.013c-0.061-0.183-0.148-0.6-0.261-1.252c-0.113,0.661-0.204,1.091-0.274,1.291L80.312,56.204z
		 M87.891,59.752v-9.327h2.544c1.122,0,1.961,0.085,2.518,0.254c0.556,0.17,1.013,0.389,1.37,0.659
		c0.409,0.305,0.75,0.678,1.024,1.122c0.274,0.444,0.459,0.9,0.554,1.37c0.096,0.47,0.144,0.896,0.144,1.278
		c0,0.826-0.15,1.561-0.45,2.205c-0.3,0.644-0.733,1.17-1.298,1.578c-0.383,0.278-0.833,0.491-1.35,0.639
		c-0.518,0.148-1.302,0.222-2.355,0.222H87.891z M89.887,58.069h1.109c1.026,0,1.783-0.235,2.27-0.704
		c0.487-0.47,0.731-1.226,0.731-2.27c0-1.044-0.246-1.8-0.737-2.27c-0.492-0.47-1.246-0.704-2.263-0.704h-1.109V58.069z
		 M100.349,59.752l-3.444-9.327h2.205l1.813,5.818c0.087,0.287,0.217,0.874,0.391,1.761c0.113-0.809,0.239-1.417,0.378-1.826
		l1.839-5.753h2.179l-3.47,9.327H100.349z M107.237,59.752v-9.327h5.492v1.683h-3.496v1.918h3.496v1.696h-3.496v2.335h3.496v1.696
		H107.237z M115.208,59.752v-9.327h2.074l4.122,5.427c0.252,0.322,0.53,0.865,0.835,1.631c-0.087-0.53-0.13-1.144-0.13-1.839v-5.218
		h1.905v9.327h-1.957l-4.24-5.531c-0.244-0.313-0.522-0.861-0.835-1.644c0.087,0.522,0.13,1.139,0.13,1.852v5.322H115.208z
		 M128.097,59.752v-7.631h-2.283v-1.696h6.575v1.696h-2.296v7.631H128.097z M138.207,60c-1.357,0-2.37-0.313-3.04-0.939
		c-0.67-0.626-1.004-1.57-1.004-2.831v-5.805h1.983v5.492c0,1.548,0.678,2.322,2.035,2.322c0.678,0,1.191-0.198,1.539-0.594
		c0.348-0.396,0.522-0.972,0.522-1.729v-5.492h1.983v5.805C142.225,58.743,140.885,60,138.207,60z M144.807,59.752v-9.327h2.857
		c2.261,0,3.392,0.883,3.392,2.648c0,0.644-0.194,1.192-0.581,1.644c-0.387,0.452-0.885,0.717-1.494,0.796l2.57,4.24h-2.296
		l-2.453-4.357v4.357H144.807z M146.803,54.404h0.3c0.504,0,0.891-0.03,1.161-0.091c0.269-0.061,0.474-0.178,0.613-0.352
		c0.139-0.174,0.209-0.422,0.209-0.744c0-0.452-0.137-0.776-0.411-0.972c-0.274-0.196-0.798-0.293-1.572-0.293h-0.3V54.404z
		 M153.235,59.752v-9.327h5.492v1.683h-3.496v1.918h3.496v1.696h-3.496v2.335h3.496v1.696H153.235z M163.579,60
		c-0.339,0-0.707-0.041-1.102-0.124c-0.396-0.083-0.761-0.239-1.096-0.47c-0.335-0.23-0.594-0.511-0.776-0.841l1.109-1.252
		c0.139,0.339,0.365,0.609,0.678,0.809c0.313,0.2,0.661,0.3,1.044,0.3c0.47,0,0.839-0.113,1.109-0.339
		c0.27-0.226,0.404-0.522,0.404-0.887c0-0.191-0.057-0.376-0.17-0.554c-0.113-0.178-0.424-0.391-0.933-0.639
		c-0.509-0.248-0.824-0.402-0.946-0.463c-0.713-0.374-1.252-0.761-1.618-1.161c-0.365-0.4-0.548-0.913-0.548-1.539
		c0-0.365,0.076-0.709,0.228-1.031c0.152-0.322,0.374-0.602,0.665-0.841c0.291-0.239,0.641-0.426,1.05-0.561
		c0.409-0.135,0.857-0.202,1.344-0.202c1.096,0,1.944,0.409,2.544,1.226l-1.174,1.122c-0.278-0.539-0.744-0.809-1.396-0.809
		c-0.391,0-0.709,0.102-0.952,0.307c-0.244,0.204-0.365,0.459-0.365,0.763c0,0.148,0.035,0.3,0.104,0.457
		c0.069,0.157,0.2,0.298,0.391,0.424c0.191,0.126,0.45,0.259,0.776,0.398c0.326,0.139,0.528,0.226,0.607,0.261
		c0.783,0.357,1.365,0.763,1.748,1.22c0.383,0.457,0.574,0.976,0.574,1.559c0,0.852-0.296,1.544-0.887,2.074
		C165.401,59.735,164.597,60,163.579,60z"/>
</g>
</svg>
